<?xml version="1.0" encoding="UTF-8"?>
<svg id="_блики" data-name="блики" xmlns="http://www.w3.org/2000/svg" viewBox="0 0 512 512">
  <defs>
    <style>
      .cls-1 {
        fill: #91ddff;
      }

      .cls-2 {
        fill: #5d84ff;
      }

      .cls-3 {
        stroke: #000;
        stroke-miterlimit: 10;
        stroke-width: .5px;
      }

      .cls-3, .cls-4 {
        fill: #d6dbdf;
      }
    </style>
  </defs>
  <g>
    <path class="cls-2" d="M121.14,307.61v-142.61c0-6.89,5.61-12.5,12.5-12.5h244.72c6.89,0,12.5,5.61,12.5,12.5v142.61H121.14Z"/>
    <path d="M378.36,154.99c5.51,0,10,4.49,10,10v140.11H123.64v-140.11c0-5.51,4.49-10,10-10h244.72M378.36,149.99h-244.72c-8.28,0-15,6.72-15,15v145.11h274.72v-145.11c0-8.28-6.72-15-15-15h0Z"/>
  </g>
  <g>
    <path class="cls-4" d="M133.64,341.23c-8.13,0-14.75-6.62-14.75-14.75v-16.12h274.22v16.12c0,8.13-6.62,14.75-14.75,14.75h-244.72Z"/>
    <path d="M392.86,310.61v15.87c0,8-6.5,14.5-14.5,14.5h-244.72c-8,0-14.5-6.5-14.5-14.5v-15.87h273.72M393.36,310.11H118.64v16.37c0,8.28,6.72,15,15,15h244.72c8.28,0,15-6.72,15-15v-16.37h0Z"/>
  </g>
  <circle cx="256" cy="325.79" r="10.02"/>
  <path class="cls-3" d="M346.43,361.76h-180.86c-1.54-.25-3.08-.51-4.61-.76,9.33-8.47,25.64-10.83,37.66-14.24,7.43-2.01,11.14-3.02,18.57-5.03,25.88,0,51.75,0,77.63,0,7.43,2.01,11.14,3.02,18.57,5.03,12.02,3.4,28.33,5.77,37.66,14.24l-4.61.76Z"/>
  <polygon class="cls-1" points="351.49 303.6 386.64 303.6 386.64 262.41 351.49 303.6"/>
  <polygon class="cls-1" points="350.17 303.6 386.64 260.9 386.64 255.51 346.58 303.6 350.17 303.6"/>
</svg>